<mxfile host="app.diagrams.net" agent="Mozilla/5.0 (Windows NT 10.0; Win64; x64) AppleWebKit/537.36 (KHTML, like Gecko) Chrome/133.0.0.0 Safari/537.36" version="26.0.16">
  <diagram name="Página-1" id="2j3kHULNOv30zQz3l5XR">
    <mxGraphModel dx="954" dy="598" grid="1" gridSize="10" guides="1" tooltips="1" connect="1" arrows="1" fold="1" page="1" pageScale="1" pageWidth="827" pageHeight="1169" math="0" shadow="0">
      <root>
        <mxCell id="0" />
        <mxCell id="1" parent="0" />
        <mxCell id="ruVek4P3YznHJTeheJDS-4" style="edgeStyle=orthogonalEdgeStyle;rounded=0;orthogonalLoop=1;jettySize=auto;html=1;exitX=1;exitY=0.5;exitDx=0;exitDy=0;entryX=0;entryY=0.5;entryDx=0;entryDy=0;" edge="1" parent="1" source="ruVek4P3YznHJTeheJDS-17" target="ruVek4P3YznHJTeheJDS-3">
          <mxGeometry relative="1" as="geometry">
            <mxPoint x="140" y="210" as="sourcePoint" />
          </mxGeometry>
        </mxCell>
        <mxCell id="ruVek4P3YznHJTeheJDS-6" style="edgeStyle=orthogonalEdgeStyle;rounded=0;orthogonalLoop=1;jettySize=auto;html=1;exitX=1;exitY=0.5;exitDx=0;exitDy=0;entryX=0;entryY=0.5;entryDx=0;entryDy=0;" edge="1" parent="1" source="ruVek4P3YznHJTeheJDS-3" target="ruVek4P3YznHJTeheJDS-5">
          <mxGeometry relative="1" as="geometry" />
        </mxCell>
        <mxCell id="ruVek4P3YznHJTeheJDS-3" value="Inicialização das Variáveis e Componentes" style="rounded=0;whiteSpace=wrap;html=1;" vertex="1" parent="1">
          <mxGeometry x="160" y="180" width="120" height="60" as="geometry" />
        </mxCell>
        <mxCell id="ruVek4P3YznHJTeheJDS-8" style="edgeStyle=orthogonalEdgeStyle;rounded=0;orthogonalLoop=1;jettySize=auto;html=1;exitX=1;exitY=0.5;exitDx=0;exitDy=0;" edge="1" parent="1" source="ruVek4P3YznHJTeheJDS-5" target="ruVek4P3YznHJTeheJDS-7">
          <mxGeometry relative="1" as="geometry" />
        </mxCell>
        <mxCell id="ruVek4P3YznHJTeheJDS-5" value="Leitura de Sensores&lt;div&gt;(DHT22, Joystick)&lt;/div&gt;" style="rounded=0;whiteSpace=wrap;html=1;" vertex="1" parent="1">
          <mxGeometry x="320" y="180" width="130" height="60" as="geometry" />
        </mxCell>
        <mxCell id="ruVek4P3YznHJTeheJDS-20" style="edgeStyle=orthogonalEdgeStyle;rounded=0;orthogonalLoop=1;jettySize=auto;html=1;exitX=1;exitY=0.5;exitDx=0;exitDy=0;entryX=0;entryY=0.5;entryDx=0;entryDy=0;" edge="1" parent="1" source="ruVek4P3YznHJTeheJDS-7" target="ruVek4P3YznHJTeheJDS-9">
          <mxGeometry relative="1" as="geometry" />
        </mxCell>
        <mxCell id="ruVek4P3YznHJTeheJDS-7" value="Captura de Imagem (Arducam OV2640)" style="rounded=0;whiteSpace=wrap;html=1;" vertex="1" parent="1">
          <mxGeometry x="490" y="180" width="120" height="60" as="geometry" />
        </mxCell>
        <mxCell id="ruVek4P3YznHJTeheJDS-21" style="edgeStyle=orthogonalEdgeStyle;rounded=0;orthogonalLoop=1;jettySize=auto;html=1;exitX=0.5;exitY=1;exitDx=0;exitDy=0;" edge="1" parent="1" source="ruVek4P3YznHJTeheJDS-9" target="ruVek4P3YznHJTeheJDS-18">
          <mxGeometry relative="1" as="geometry" />
        </mxCell>
        <mxCell id="ruVek4P3YznHJTeheJDS-9" value="Processamento de Dados" style="rounded=0;whiteSpace=wrap;html=1;" vertex="1" parent="1">
          <mxGeometry x="650" y="180" width="120" height="60" as="geometry" />
        </mxCell>
        <mxCell id="ruVek4P3YznHJTeheJDS-36" style="edgeStyle=orthogonalEdgeStyle;rounded=0;orthogonalLoop=1;jettySize=auto;html=1;exitX=0;exitY=0.5;exitDx=0;exitDy=0;" edge="1" parent="1" source="ruVek4P3YznHJTeheJDS-11" target="ruVek4P3YznHJTeheJDS-30">
          <mxGeometry relative="1" as="geometry" />
        </mxCell>
        <mxCell id="ruVek4P3YznHJTeheJDS-11" value="Exibição de dados&lt;br&gt;(Display OLED )" style="rounded=0;whiteSpace=wrap;html=1;" vertex="1" parent="1">
          <mxGeometry x="480" y="440" width="120" height="60" as="geometry" />
        </mxCell>
        <mxCell id="ruVek4P3YznHJTeheJDS-38" style="edgeStyle=orthogonalEdgeStyle;rounded=0;orthogonalLoop=1;jettySize=auto;html=1;exitX=0.5;exitY=0;exitDx=0;exitDy=0;entryX=0.5;entryY=1;entryDx=0;entryDy=0;" edge="1" parent="1" source="ruVek4P3YznHJTeheJDS-13" target="ruVek4P3YznHJTeheJDS-5">
          <mxGeometry relative="1" as="geometry" />
        </mxCell>
        <mxCell id="ruVek4P3YznHJTeheJDS-13" value="Comunicação com a CLOUD" style="rounded=0;whiteSpace=wrap;html=1;" vertex="1" parent="1">
          <mxGeometry x="120" y="440" width="120" height="60" as="geometry" />
        </mxCell>
        <mxCell id="ruVek4P3YznHJTeheJDS-17" value="Inicio" style="rounded=1;whiteSpace=wrap;html=1;" vertex="1" parent="1">
          <mxGeometry y="180" width="120" height="60" as="geometry" />
        </mxCell>
        <mxCell id="ruVek4P3YznHJTeheJDS-22" style="edgeStyle=orthogonalEdgeStyle;rounded=0;orthogonalLoop=1;jettySize=auto;html=1;exitX=0.5;exitY=1;exitDx=0;exitDy=0;entryX=0.5;entryY=0;entryDx=0;entryDy=0;" edge="1" parent="1" source="ruVek4P3YznHJTeheJDS-18" target="ruVek4P3YznHJTeheJDS-19">
          <mxGeometry relative="1" as="geometry" />
        </mxCell>
        <mxCell id="ruVek4P3YznHJTeheJDS-23" value="Sim" style="edgeLabel;html=1;align=center;verticalAlign=middle;resizable=0;points=[];" vertex="1" connectable="0" parent="ruVek4P3YznHJTeheJDS-22">
          <mxGeometry x="-0.325" relative="1" as="geometry">
            <mxPoint as="offset" />
          </mxGeometry>
        </mxCell>
        <mxCell id="ruVek4P3YznHJTeheJDS-26" style="edgeStyle=orthogonalEdgeStyle;rounded=0;orthogonalLoop=1;jettySize=auto;html=1;exitX=0;exitY=0.5;exitDx=0;exitDy=0;entryX=0.5;entryY=0;entryDx=0;entryDy=0;" edge="1" parent="1" source="ruVek4P3YznHJTeheJDS-18" target="ruVek4P3YznHJTeheJDS-11">
          <mxGeometry relative="1" as="geometry">
            <mxPoint x="540" y="410" as="targetPoint" />
            <mxPoint x="580" y="310" as="sourcePoint" />
          </mxGeometry>
        </mxCell>
        <mxCell id="ruVek4P3YznHJTeheJDS-27" value="Não" style="edgeLabel;html=1;align=center;verticalAlign=middle;resizable=0;points=[];" vertex="1" connectable="0" parent="ruVek4P3YznHJTeheJDS-26">
          <mxGeometry x="0.2273" y="-2" relative="1" as="geometry">
            <mxPoint as="offset" />
          </mxGeometry>
        </mxCell>
        <mxCell id="ruVek4P3YznHJTeheJDS-18" value="Temperatura&amp;nbsp;&lt;div&gt;Alta/Baixa?&lt;/div&gt;" style="rhombus;whiteSpace=wrap;html=1;" vertex="1" parent="1">
          <mxGeometry x="640" y="280" width="140" height="100" as="geometry" />
        </mxCell>
        <mxCell id="ruVek4P3YznHJTeheJDS-28" style="edgeStyle=orthogonalEdgeStyle;rounded=0;orthogonalLoop=1;jettySize=auto;html=1;exitX=0;exitY=0.5;exitDx=0;exitDy=0;entryX=1;entryY=0.5;entryDx=0;entryDy=0;" edge="1" parent="1" source="ruVek4P3YznHJTeheJDS-19" target="ruVek4P3YznHJTeheJDS-11">
          <mxGeometry relative="1" as="geometry" />
        </mxCell>
        <mxCell id="ruVek4P3YznHJTeheJDS-19" value="Ligar Buzzer/Câmera" style="rounded=0;whiteSpace=wrap;html=1;" vertex="1" parent="1">
          <mxGeometry x="650" y="440" width="120" height="60" as="geometry" />
        </mxCell>
        <mxCell id="ruVek4P3YznHJTeheJDS-37" style="edgeStyle=orthogonalEdgeStyle;rounded=0;orthogonalLoop=1;jettySize=auto;html=1;exitX=0;exitY=0.5;exitDx=0;exitDy=0;entryX=1;entryY=0.5;entryDx=0;entryDy=0;" edge="1" parent="1" source="ruVek4P3YznHJTeheJDS-30" target="ruVek4P3YznHJTeheJDS-13">
          <mxGeometry relative="1" as="geometry" />
        </mxCell>
        <mxCell id="ruVek4P3YznHJTeheJDS-30" value="Atualizar matriz de LED/LED RGB" style="rounded=0;whiteSpace=wrap;html=1;" vertex="1" parent="1">
          <mxGeometry x="300" y="440" width="120" height="60" as="geometry" />
        </mxCell>
      </root>
    </mxGraphModel>
  </diagram>
</mxfile>
